<mxfile host="app.diagrams.net" modified="2023-05-08T04:38:54.528Z" agent="Mozilla/5.0 (Windows NT 10.0; Win64; x64) AppleWebKit/537.36 (KHTML, like Gecko) Chrome/113.0.0.0 Safari/537.36" etag="r7I5N6e1BY7Q9cffnS_u" version="21.2.9" type="github">
  <diagram name="Page-1" id="3e8102d1-ef87-2e61-34e1-82d9a586fe2e">
    <mxGraphModel dx="1789" dy="991" grid="1" gridSize="10" guides="1" tooltips="1" connect="1" arrows="1" fold="1" page="1" pageScale="1" pageWidth="1100" pageHeight="850" background="#ffffff" math="0" shadow="0">
      <root>
        <mxCell id="0" />
        <mxCell id="1" parent="0" />
        <mxCell id="70666756c84bb93c-1" value="" style="ellipse;whiteSpace=wrap;html=1;rounded=1;shadow=0;comic=0;strokeWidth=1;fontFamily=Verdana;fontSize=14;strokeColor=none;fillColor=#eec75d;fillStyle=auto;gradientColor=none;gradientDirection=radial;" parent="1" vertex="1">
          <mxGeometry x="295" y="170" width="510" height="510" as="geometry" />
        </mxCell>
        <mxCell id="70666756c84bb93c-2" value="Metodología de procesamiento para Predicción" style="ellipse;whiteSpace=wrap;html=1;rounded=1;shadow=0;comic=0;strokeWidth=1;fontFamily=Verdana;fontSize=22;strokeColor=none;fillColor=#ffffff;fontColor=#0069D1;fontStyle=1" parent="1" vertex="1">
          <mxGeometry x="420" y="302" width="260" height="260" as="geometry" />
        </mxCell>
        <mxCell id="XZqNObdOu6XlgkOFqg5Q-12" value="Minería de &#xa;datos" style="image;aspect=fixed;points=[];align=center;fontSize=14;image=img/lib/mscae/Analysis_Services.svg;labelBackgroundColor=#eec75d;fontColor=#ffffff;fontStyle=1;rounded=1;" vertex="1" parent="1">
          <mxGeometry x="688" y="297" width="66.67" height="52" as="geometry" />
        </mxCell>
        <mxCell id="XZqNObdOu6XlgkOFqg5Q-13" value="Comprensión &#xa;empresarial" style="image;sketch=0;aspect=fixed;points=[];align=center;fontSize=14;image=img/lib/mscae/Data_Factory.svg;labelBackgroundColor=#eec75d;fontColor=#ffffff;fontStyle=1;rounded=1;" vertex="1" parent="1">
          <mxGeometry x="525" y="189" width="66" height="66" as="geometry" />
        </mxCell>
        <mxCell id="XZqNObdOu6XlgkOFqg5Q-14" value="Modelo de &lt;br&gt;predicción" style="image;sketch=0;aspect=fixed;html=1;points=[];align=center;fontSize=14;image=img/lib/mscae/Chart.svg;labelBackgroundColor=#eec75d;fontColor=#ffffff;fontStyle=1;rounded=1;" vertex="1" parent="1">
          <mxGeometry x="352" y="479" width="60.41" height="58" as="geometry" />
        </mxCell>
        <mxCell id="XZqNObdOu6XlgkOFqg5Q-15" value="Limpieza de&lt;br&gt;&amp;nbsp;datos" style="image;aspect=fixed;html=1;points=[];align=center;fontSize=14;image=img/lib/mscae/Log_Analytics_Workspaces.svg;fontColor=#ffffff;labelBackgroundColor=#eec75d;fontStyle=1;rounded=1;" vertex="1" parent="1">
          <mxGeometry x="653" y="504" width="66" height="66" as="geometry" />
        </mxCell>
        <mxCell id="XZqNObdOu6XlgkOFqg5Q-16" value="Exploración de&#xa;datos" style="image;sketch=0;aspect=fixed;points=[];align=center;fontSize=14;image=img/lib/mscae/Event_Hub_Clusters.svg;fontColor=#ffffff;labelBackgroundColor=#eec75d;fontStyle=1;rounded=1;" vertex="1" parent="1">
          <mxGeometry x="484" y="565" width="52.09" height="50" as="geometry" />
        </mxCell>
        <mxCell id="XZqNObdOu6XlgkOFqg5Q-17" value="Visualización de&lt;br&gt;datos" style="image;aspect=fixed;html=1;points=[];align=center;fontSize=14;image=img/lib/azure2/ai_machine_learning/Machine_Learning_Studio_Web_Service_Plans.svg;fontColor=#ffffff;labelBackgroundColor=#eec75d;sketch=0;fontStyle=1;rounded=1;" vertex="1" parent="1">
          <mxGeometry x="335" y="290" width="66" height="66" as="geometry" />
        </mxCell>
      </root>
    </mxGraphModel>
  </diagram>
</mxfile>
